<svg xmlns="http://www.w3.org/2000/svg" width="878" height="198" viewBox="38 54 878 198" role="img" aria-label="Flowing blue direct title case compact wordmark">
  <title>Flowing blue direct title case compact wordmark</title>
  <svg x="28" y="28" width="244" height="244" viewBox="0 0 512 512"><g transform="translate(256 256) scale(1.14) translate(-256 -256)">
    <path d="M 155.75 119.79 C 150.50 120.13 143.82 121.10 138.69 122.24 C 133.55 123.37 127.14 125.32 122.27 127.22 C 117.39 129.11 111.40 131.98 106.91 134.59 C 102.42 137.21 96.99 140.97 93.00 144.27 C 89.01 147.56 84.29 152.17 80.89 156.07 C 77.48 159.98 73.57 165.32 70.79 169.73 C 68.02 174.13 64.92 180.03 62.79 184.82 C 60.66 189.60 58.36 195.89 56.89 200.92 C 55.42 205.95 53.95 212.48 53.20 217.65 C 52.45 222.82 51.95 229.45 52.00 234.64 C 52.05 239.83 52.64 246.42 53.55 251.51 C 54.46 256.61 56.18 262.99 57.92 267.86 C 59.67 272.74 62.42 278.77 64.93 283.32 C 67.43 287.87 71.08 293.41 74.25 297.51 C 77.41 301.61 81.82 306.52 85.57 310.05 C 89.31 313.57 94.39 317.69 98.67 320.51 C 102.96 323.32 108.70 326.46 113.52 328.41 C 118.35 330.36 124.79 332.29 130.14 333.21 C 135.50 334.14 142.66 334.59 148.43 334.46 C 154.19 334.32 161.83 333.33 167.74 332.33 C 173.64 331.34 181.21 329.39 186.92 327.98 C 192.64 326.57 199.68 324.42 205.00 323.13 C 210.33 321.85 216.77 320.23 221.64 319.62 C 226.51 319.00 232.38 318.64 236.77 319.11 C 241.16 319.58 246.42 320.95 250.26 322.68 C 254.11 324.42 258.63 327.49 261.86 330.42 C 265.10 333.34 268.72 337.86 271.35 341.75 C 273.98 345.64 276.72 351.36 279.00 355.77 C 281.29 360.19 283.77 366.37 286.24 370.54 C 288.72 374.71 292.00 379.94 295.13 382.98 C 298.25 386.03 302.86 389.06 306.63 390.40 C 310.39 391.73 315.80 392.18 319.69 391.67 C 323.59 391.17 328.72 389.24 332.05 387.12 C 335.38 385.00 339.24 381.16 341.39 377.87 C 343.53 374.57 345.45 369.52 346.02 365.61 C 346.58 361.71 346.22 356.29 345.05 352.42 C 343.88 348.54 341.20 343.65 338.38 340.33 C 335.57 337.00 330.79 333.32 326.71 330.74 C 322.63 328.16 316.46 325.64 311.77 323.51 C 307.08 321.37 300.67 319.10 296.13 316.84 C 291.60 314.58 285.98 311.61 282.17 308.77 C 278.37 305.93 274.07 301.92 271.34 298.32 C 268.60 294.71 265.90 289.64 264.35 285.25 C 262.79 280.85 261.72 274.75 261.18 269.65 C 260.64 264.54 260.77 257.59 260.83 251.95 C 260.88 246.31 261.45 238.78 261.56 232.85 C 261.66 226.92 261.88 219.18 261.50 213.28 C 261.12 207.39 260.31 199.93 259.09 194.40 C 257.87 188.86 255.70 182.14 253.51 177.18 C 251.33 172.21 247.88 166.35 244.83 162.01 C 241.78 157.67 237.36 152.60 233.62 148.90 C 229.88 145.20 224.72 140.91 220.44 137.90 C 216.16 134.89 210.42 131.49 205.71 129.24 C 201.01 126.99 194.79 124.64 189.77 123.23 C 184.74 121.83 178.17 120.60 172.96 120.08 C 167.74 119.55 161.01 119.46 155.75 119.79 Z" fill="#38C2D1" transform="translate(13.2 25.8)"/>
    <path d="M 367.69 153.34 C 365.90 153.63 363.68 154.11 361.96 154.61 C 360.23 155.11 358.09 155.87 356.44 156.58 C 354.79 157.29 352.75 158.32 351.19 159.23 C 349.63 160.15 347.72 161.44 346.27 162.55 C 344.83 163.66 343.07 165.19 341.77 166.48 C 340.47 167.77 338.91 169.52 337.79 170.97 C 336.66 172.41 335.35 174.34 334.44 175.92 C 333.52 177.50 332.50 179.58 331.83 181.27 C 331.16 182.97 330.46 185.18 330.06 186.96 C 329.65 188.74 329.31 191.05 329.19 192.88 C 329.06 194.70 329.09 197.04 329.25 198.86 C 329.41 200.68 329.80 202.97 330.23 204.75 C 330.66 206.53 331.38 208.75 332.05 210.47 C 332.72 212.19 333.72 214.33 334.59 215.98 C 335.47 217.62 336.71 219.66 337.77 221.21 C 338.84 222.75 340.29 224.64 341.53 226.04 C 342.76 227.43 344.42 229.11 345.81 230.34 C 347.20 231.57 349.06 233.00 350.58 234.06 C 352.10 235.12 354.11 236.34 355.72 237.26 C 357.33 238.18 359.42 239.25 361.08 240.05 C 362.73 240.86 364.84 241.82 366.50 242.52 C 368.17 243.23 370.26 244.06 371.94 244.63 C 373.62 245.21 375.74 245.86 377.46 246.27 C 379.19 246.68 381.40 247.09 383.19 247.32 C 384.98 247.55 387.30 247.72 389.14 247.75 C 390.97 247.79 393.34 247.72 395.18 247.57 C 397.03 247.42 399.36 247.11 401.17 246.76 C 402.99 246.42 405.25 245.87 407.00 245.33 C 408.76 244.80 410.94 244.00 412.64 243.28 C 414.34 242.56 416.44 241.53 418.06 240.63 C 419.68 239.73 421.69 238.48 423.20 237.41 C 424.72 236.33 426.57 234.87 427.93 233.63 C 429.29 232.40 430.91 230.73 432.08 229.33 C 433.26 227.92 434.61 226.05 435.59 224.48 C 436.57 222.92 437.67 220.83 438.47 219.13 C 439.27 217.43 440.16 215.18 440.79 213.40 C 441.42 211.61 442.13 209.30 442.59 207.49 C 443.05 205.68 443.54 203.40 443.81 201.62 C 444.07 199.84 444.29 197.62 444.32 195.88 C 444.35 194.13 444.23 191.96 443.99 190.24 C 443.75 188.53 443.26 186.37 442.75 184.70 C 442.23 183.02 441.40 180.91 440.64 179.29 C 439.88 177.67 438.77 175.67 437.79 174.15 C 436.82 172.64 435.45 170.80 434.29 169.43 C 433.13 168.06 431.54 166.43 430.22 165.24 C 428.90 164.05 427.12 162.67 425.66 161.68 C 424.21 160.69 422.28 159.58 420.72 158.80 C 419.15 158.03 417.11 157.19 415.47 156.63 C 413.82 156.06 411.70 155.49 409.98 155.12 C 408.26 154.74 406.05 154.40 404.26 154.17 C 402.46 153.93 400.15 153.74 398.29 153.58 C 396.42 153.43 394.01 153.28 392.10 153.17 C 390.18 153.05 387.73 152.91 385.82 152.83 C 383.91 152.75 381.50 152.64 379.62 152.62 C 377.74 152.60 375.40 152.61 373.57 152.72 C 371.74 152.83 369.47 153.05 367.69 153.34 Z" fill="#38C2D1" transform="translate(-8 -16.7)"/>
    <path d="M0-18 3.1-3.1 18 0 3.1 3.1 0 18-3.1 3.1-18 0-3.1-3.1Z" fill="#E4F0EE" transform="translate(205.6 215) scale(0.82)"/>
    <path d="M0-18 3.1-3.1 18 0 3.1 3.1 0 18-3.1 3.1-18 0-3.1-3.1Z" fill="#38C2D1" transform="translate(413 278.5) scale(0.96)"/>
    <path d="M0-18 3.1-3.1 18 0 3.1 3.1 0 18-3.1 3.1-18 0-3.1-3.1Z" fill="#38C2D1" transform="translate(344.1 304.9) scale(0.56)"/>
    <path d="M0-18 3.1-3.1 18 0 3.1 3.1 0 18-3.1 3.1-18 0-3.1-3.1Z" fill="#38C2D1" transform="translate(104.2 116.8) scale(0.64)"/>
  </g></svg>
  <text x="315" y="198" fill="#38C2D1" font-family="Avenir Next, Helvetica Neue, Arial, sans-serif" font-size="138" font-weight="600" letter-spacing="1">Flowing</text>
</svg>
